<svg width="26" height="25" viewBox="0 0 26 25" fill="none" xmlns="http://www.w3.org/2000/svg">
<path d="M20.8933 5.55197C19.5079 4.90614 18.0079 4.43739 16.4454 4.16655C16.4317 4.16611 16.418 4.16868 16.4054 4.17408C16.3928 4.17948 16.3816 4.18758 16.3724 4.1978C16.1849 4.54155 15.9662 4.98947 15.8204 5.33322C14.1631 5.08322 12.4776 5.08322 10.8204 5.33322C10.6745 4.97905 10.4558 4.54155 10.2579 4.1978C10.2474 4.17697 10.2162 4.16655 10.1849 4.16655C8.62244 4.43739 7.13285 4.90614 5.73702 5.55197C5.7266 5.55197 5.71619 5.56238 5.70577 5.5728C2.87244 9.81239 2.09119 13.9374 2.4766 18.0207C2.4766 18.0416 2.48702 18.0624 2.50785 18.0728C4.38285 19.4478 6.18494 20.2811 7.96619 20.8332C7.99744 20.8436 8.02869 20.8332 8.0391 20.8124C8.45577 20.2395 8.83077 19.6353 9.15369 18.9999C9.17452 18.9582 9.15369 18.9166 9.11202 18.9061C8.51827 18.677 7.95577 18.4061 7.40369 18.0936C7.36202 18.0728 7.36202 18.0103 7.39327 17.9791C7.50785 17.8957 7.62244 17.802 7.73702 17.7186C7.75785 17.6978 7.7891 17.6978 7.80994 17.7082C11.3933 19.3436 15.2579 19.3436 18.7995 17.7082C18.8204 17.6978 18.8516 17.6978 18.8724 17.7186C18.987 17.8124 19.1016 17.8957 19.2162 17.9895C19.2579 18.0207 19.2579 18.0832 19.2058 18.1041C18.6641 18.427 18.0912 18.6874 17.4974 18.9166C17.4558 18.927 17.4454 18.9791 17.4558 19.0103C17.7891 19.6457 18.1641 20.2499 18.5704 20.8228C18.6016 20.8332 18.6329 20.8436 18.6641 20.8332C20.4558 20.2811 22.2579 19.4478 24.1329 18.0728C24.1537 18.0624 24.1641 18.0416 24.1641 18.0207C24.6224 13.302 23.4037 9.20822 20.9349 5.5728C20.9245 5.56238 20.9141 5.55197 20.8933 5.55197ZM9.69535 15.5311C8.62244 15.5311 7.7266 14.5416 7.7266 13.3228C7.7266 12.1041 8.6016 11.1145 9.69535 11.1145C10.7995 11.1145 11.6745 12.1145 11.6641 13.3228C11.6641 14.5416 10.7891 15.5311 9.69535 15.5311ZM16.9558 15.5311C15.8829 15.5311 14.987 14.5416 14.987 13.3228C14.987 12.1041 15.862 11.1145 16.9558 11.1145C18.0599 11.1145 18.9349 12.1145 18.9245 13.3228C18.9245 14.5416 18.0599 15.5311 16.9558 15.5311Z" fill="#2874E7"/>
</svg>
