<svg width="28" height="28" viewBox="0 0 28 28" fill="none" xmlns="http://www.w3.org/2000/svg">
<g clip-path="url(#clip0_1152_98)">
<path d="M23.2388 8.76556C23.2533 8.98078 23.2533 9.196 23.2533 9.41318C23.2533 16.0315 18.3553 23.6643 9.39916 23.6643V23.6604C6.75349 23.6643 4.16277 22.8848 1.93555 21.4149C2.32024 21.4626 2.70688 21.4864 3.09447 21.4874C5.28699 21.4893 7.41683 20.7326 9.14172 19.3391C7.05816 19.2985 5.23106 17.901 4.59279 15.8609C5.32266 16.0057 6.07471 15.9759 6.79108 15.7746C4.51951 15.3025 2.88525 13.2495 2.88525 10.8652C2.88525 10.8434 2.88525 10.8226 2.88525 10.8017C3.5621 11.1895 4.31993 11.4047 5.09512 11.4285C2.95563 9.95772 2.29614 7.02992 3.58812 4.74085C6.06025 7.86997 9.7077 9.77222 13.6232 9.97354C13.2308 8.23396 13.7668 6.41104 15.0318 5.18815C16.9929 3.29184 20.0773 3.38904 21.9208 5.40536C23.0112 5.18419 24.0564 4.77259 25.0129 4.18941C24.6493 5.34883 23.8887 6.33368 22.8725 6.9595C23.8376 6.84248 24.7805 6.57667 25.6685 6.17103C25.0148 7.17869 24.1914 8.05644 23.2388 8.76556Z" fill="#2874E7"/>
</g>
<defs>
<clipPath id="clip0_1152_98">
<rect width="27.59" height="27.59" fill="white"/>
</clipPath>
</defs>
</svg>
