<svg width="29" height="28" viewBox="0 0 29 28" fill="none" xmlns="http://www.w3.org/2000/svg">
<g clip-path="url(#clip0_1152_104)">
<path d="M24.7316 13.795C24.7316 16.539 23.6415 19.1706 21.7012 21.1109C19.7609 23.0512 17.1293 24.1412 14.3853 24.1412M24.7316 13.795C24.7316 11.051 23.6415 8.41937 21.7012 6.47908C19.7609 4.53878 17.1293 3.44873 14.3853 3.44873M24.7316 13.795H4.03906M14.3853 24.1412C11.6413 24.1412 9.00971 23.0512 7.06941 21.1109C5.12911 19.1706 4.03906 16.539 4.03906 13.795M14.3853 24.1412C16.2902 24.1412 17.8341 19.5084 17.8341 13.795C17.8341 8.08155 16.2902 3.44873 14.3853 3.44873M14.3853 24.1412C12.4805 24.1412 10.9366 19.5084 10.9366 13.795C10.9366 8.08155 12.4805 3.44873 14.3853 3.44873M14.3853 3.44873C11.6413 3.44873 9.00971 4.53878 7.06941 6.47908C5.12911 8.41937 4.03906 11.051 4.03906 13.795" stroke="#2874E7" stroke-width="2.29948" stroke-linecap="round" stroke-linejoin="round"/>
</g>
<defs>
<clipPath id="clip0_1152_104">
<rect width="27.59" height="27.59" fill="white" transform="translate(0.589844)"/>
</clipPath>
</defs>
</svg>
