<svg width="333" height="288" viewBox="0 0 333 288" fill="none" xmlns="http://www.w3.org/2000/svg">
<path d="M148.956 40C156.654 26.6667 175.899 26.6667 183.597 40L306.573 253C314.271 266.333 304.648 283 289.252 283H43.3013C27.9053 283 18.2828 266.333 25.9808 253L148.956 40Z" stroke="#0091FF" stroke-width="10"/>
<path d="M114 176V199.2C114 200.738 114.615 202.214 115.709 203.301C116.803 204.389 118.286 205 119.833 205H137.333M137.333 176V234M195.667 176V199.2C195.667 200.738 196.281 202.214 197.375 203.301C198.469 204.389 199.953 205 201.5 205H219M219 176V234M154.833 181.8V228.2C154.833 229.738 155.448 231.214 156.542 232.301C157.636 233.389 159.12 234 160.667 234H172.333C173.88 234 175.364 233.389 176.458 232.301C177.552 231.214 178.167 229.738 178.167 228.2V181.8C178.167 180.262 177.552 178.786 176.458 177.699C175.364 176.611 173.88 176 172.333 176H160.667C159.12 176 157.636 176.611 156.542 177.699C155.448 178.786 154.833 180.262 154.833 181.8Z" stroke="#0091FF" stroke-width="10" stroke-linecap="round" stroke-linejoin="round"/>
</svg>
