<svg width="97" height="97" viewBox="0 0 97 97" fill="none" xmlns="http://www.w3.org/2000/svg">
<path d="M28.291 72.75V68.7083C28.291 63.3487 30.4201 58.2087 34.2099 54.4189C37.9997 50.6291 43.1398 48.5 48.4993 48.5M48.4993 48.5C53.8589 48.5 58.999 50.6291 62.7888 54.4189C66.5786 58.2087 68.7077 63.3487 68.7077 68.7083V72.75M48.4993 48.5C51.7151 48.5 54.7991 47.2225 57.073 44.9487C59.3469 42.6748 60.6243 39.5907 60.6243 36.375C60.6243 33.1592 59.3469 30.0752 57.073 27.8013C54.7991 25.5275 51.7151 24.25 48.4993 24.25C45.2836 24.25 42.1996 25.5275 39.9257 27.8013C37.6518 30.0752 36.3743 33.1592 36.3743 36.375C36.3743 39.5907 37.6518 42.6748 39.9257 44.9487C42.1996 47.2225 45.2836 48.5 48.4993 48.5ZM4.04102 72.75V68.7083C4.04102 65.4926 5.31847 62.4085 7.59235 60.1347C9.86622 57.8608 12.9503 56.5833 16.166 56.5833M16.166 56.5833C18.3098 56.5833 20.3659 55.7317 21.8818 54.2158C23.3977 52.6999 24.2493 50.6438 24.2493 48.5C24.2493 46.3562 23.3977 44.3001 21.8818 42.7842C20.3659 41.2683 18.3098 40.4167 16.166 40.4167C14.0222 40.4167 11.9662 41.2683 10.4502 42.7842C8.93432 44.3001 8.08268 46.3562 8.08268 48.5C8.08268 50.6438 8.93432 52.6999 10.4502 54.2158C11.9662 55.7317 14.0222 56.5833 16.166 56.5833ZM92.9577 72.75V68.7083C92.9577 65.4926 91.6802 62.4085 89.4064 60.1347C87.1325 57.8608 84.0484 56.5833 80.8327 56.5833M80.8327 56.5833C82.9765 56.5833 85.0325 55.7317 86.5485 54.2158C88.0644 52.6999 88.916 50.6438 88.916 48.5C88.916 46.3562 88.0644 44.3001 86.5485 42.7842C85.0325 41.2683 82.9765 40.4167 80.8327 40.4167C78.6888 40.4167 76.6328 41.2683 75.1169 42.7842C73.601 44.3001 72.7493 46.3562 72.7493 48.5C72.7493 50.6438 73.601 52.6999 75.1169 54.2158C76.6328 55.7317 78.6888 56.5833 80.8327 56.5833Z" stroke="#5ACBEE" stroke-width="2" stroke-linecap="round" stroke-linejoin="round"/>
</svg>
