<svg width="21" height="21" viewBox="0 0 21 21" fill="none" xmlns="http://www.w3.org/2000/svg">
<path d="M3.25 15.625V10.4167H8.45833V15.625H3.25ZM4.29167 11.4583V14.5833H7.41667V11.4583H4.29167ZM10.5417 4.6875H15.75V6.77083H10.5417V4.6875ZM2.20833 18.75C1.6558 18.75 1.12589 18.5305 0.735194 18.1398C0.344493 17.7491 0.125 17.2192 0.125 16.6667V2.08333C0.125 1.5308 0.344493 1.00089 0.735194 0.610194C1.12589 0.219493 1.6558 0 2.20833 0H16.7917C17.3442 0 17.8741 0.219493 18.2648 0.610194C18.6555 1.00089 18.875 1.5308 18.875 2.08333V8.51042C18.3542 8.39583 17.8333 8.33333 17.3125 8.33333H16.7917V2.08333H2.20833V16.6667H10.7188C10.8958 17.4167 11.1979 18.1146 11.5833 18.75H2.20833ZM8.45833 3.125V8.33333H3.25V3.125H8.45833ZM7.41667 7.29167V4.16667H4.29167V7.29167H7.41667ZM16.7917 9.375V10.9375C17.8967 10.9375 18.9565 11.3765 19.7379 12.1579C20.5193 12.9393 20.9583 13.9991 20.9583 15.1042C20.9583 15.9583 20.6979 16.75 20.2604 17.4062L19.125 16.2708C19.3021 15.9167 19.3958 15.5208 19.3958 15.1042C19.3958 14.4135 19.1215 13.7511 18.6331 13.2627C18.1447 12.7744 17.4823 12.5 16.7917 12.5V14.0625L14.4479 11.7188L16.7917 9.375ZM16.7917 20.8333V19.2708C15.6866 19.2708 14.6268 18.8318 13.8454 18.0504C13.064 17.269 12.625 16.2092 12.625 15.1042C12.625 14.25 12.8854 13.4583 13.3229 12.8021L14.4583 13.9375C14.2813 14.2917 14.1875 14.6875 14.1875 15.1042C14.1875 15.7948 14.4619 16.4572 14.9502 16.9456C15.4386 17.434 16.101 17.7083 16.7917 17.7083V16.1458L19.1354 18.4896L16.7917 20.8333Z" fill="#5ACBEE"/>
</svg>
