<svg width="33" height="33" viewBox="0 0 33 33" fill="none" xmlns="http://www.w3.org/2000/svg">
<g clip-path="url(#clip0_1565_54)">
<path d="M27.5894 6.6127C25.5498 5.67686 23.3626 4.98737 21.0759 4.59248C21.0342 4.58486 20.9926 4.6039 20.9712 4.642C20.6899 5.14228 20.3783 5.79495 20.1601 6.30794C17.7005 5.93971 15.2536 5.93971 12.8444 6.30794C12.6262 5.78354 12.3033 5.14228 12.0208 4.642C11.9993 4.60517 11.9577 4.58613 11.9161 4.59248C9.63055 4.98611 7.44341 5.6756 5.40258 6.6127C5.38491 6.62032 5.36977 6.63303 5.35972 6.64953C1.21119 12.8473 0.074733 18.8928 0.63224 24.8633C0.634763 24.8925 0.65116 24.9205 0.673864 24.9382C3.41095 26.9483 6.06228 28.1686 8.66437 28.9774C8.70602 28.9901 8.75014 28.9749 8.77664 28.9406C9.39217 28.1 9.94086 27.2137 10.4113 26.2817C10.4391 26.2271 10.4126 26.1623 10.3558 26.1407C9.48551 25.8106 8.6568 25.4081 7.85964 24.951C7.79659 24.9141 7.79154 24.8239 7.84954 24.7808C8.0173 24.6551 8.18509 24.5243 8.34527 24.3922C8.37425 24.3681 8.41464 24.363 8.44871 24.3782C13.6857 26.7693 19.3554 26.7693 24.5306 24.3782C24.5647 24.3618 24.6051 24.3668 24.6353 24.391C24.7955 24.523 24.9633 24.6551 25.1323 24.7808C25.1903 24.8239 25.1865 24.9141 25.1235 24.951C24.3263 25.4169 23.4976 25.8106 22.626 26.1395C22.5693 26.1611 22.544 26.2271 22.5718 26.2817C23.0523 27.2124 23.601 28.0987 24.2052 28.9393C24.2304 28.9749 24.2758 28.9901 24.3175 28.9774C26.9322 28.1686 29.5835 26.9483 32.3206 24.9382C32.3446 24.9205 32.3597 24.8938 32.3622 24.8646C33.0294 17.962 31.2447 11.9661 27.631 6.65079C27.6221 6.63303 27.607 6.62032 27.5894 6.6127ZM11.1934 21.2279C9.61666 21.2279 8.31751 19.7804 8.31751 18.0027C8.31751 16.225 9.59147 14.7774 11.1934 14.7774C12.8078 14.7774 14.0944 16.2377 14.0692 18.0027C14.0692 19.7804 12.7952 21.2279 11.1934 21.2279ZM21.8263 21.2279C20.2497 21.2279 18.9505 19.7804 18.9505 18.0027C18.9505 16.225 20.2244 14.7774 21.8263 14.7774C23.4408 14.7774 24.7274 16.2377 24.7022 18.0027C24.7022 19.7804 23.4408 21.2279 21.8263 21.2279Z" fill="#5865F2"/>
</g>
<defs>
<clipPath id="clip0_1565_54">
<rect width="32" height="32" fill="white" transform="translate(0.5 0.799805)"/>
</clipPath>
</defs>
</svg>
