<svg width="20" height="20" viewBox="0 0 20 20" fill="none" xmlns="http://www.w3.org/2000/svg">
<g clip-path="url(#clip0_1364_428)">
<path d="M10.2744 7.19665V10.395M10.2744 13.5933H10.2824M17.4706 10.395C17.4706 11.34 17.2845 12.2758 16.9228 13.1489C16.5612 14.022 16.0311 14.8153 15.3629 15.4835C14.6947 16.1517 13.9013 16.6818 13.0283 17.0434C12.1552 17.4051 11.2194 17.5912 10.2744 17.5912C9.32935 17.5912 8.39358 17.4051 7.52049 17.0434C6.6474 16.6818 5.85409 16.1517 5.18586 15.4835C4.51762 14.8153 3.98755 14.022 3.62591 13.1489C3.26426 12.2758 3.07812 11.34 3.07813 10.395C3.07813 8.48642 3.8363 6.65602 5.18586 5.30646C6.53542 3.9569 8.36581 3.19873 10.2744 3.19873C12.1829 3.19873 14.0133 3.9569 15.3629 5.30646C16.7124 6.65602 17.4706 8.48642 17.4706 10.395Z" stroke="#AFB8C1" stroke-width="1.59896" stroke-linecap="round" stroke-linejoin="round"/>
</g>
<defs>
<clipPath id="clip0_1364_428">
<rect width="19.19" height="19.19" fill="white" transform="translate(0.679688 0.799805)"/>
</clipPath>
</defs>
</svg>
