<svg width="25" height="25" viewBox="0 0 25 25" fill="none" xmlns="http://www.w3.org/2000/svg">
<path d="M5.16016 12.7998H5.17016M12.1602 12.7998H12.1702M19.1602 12.7998H19.1702M6.16016 12.7998C6.16016 13.065 6.0548 13.3194 5.86726 13.5069C5.67973 13.6944 5.42537 13.7998 5.16016 13.7998C4.89494 13.7998 4.64059 13.6944 4.45305 13.5069C4.26551 13.3194 4.16016 13.065 4.16016 12.7998C4.16016 12.5346 4.26551 12.2802 4.45305 12.0927C4.64059 11.9052 4.89494 11.7998 5.16016 11.7998C5.42537 11.7998 5.67973 11.9052 5.86726 12.0927C6.0548 12.2802 6.16016 12.5346 6.16016 12.7998ZM13.1602 12.7998C13.1602 13.065 13.0548 13.3194 12.8673 13.5069C12.6797 13.6944 12.4254 13.7998 12.1602 13.7998C11.8949 13.7998 11.6406 13.6944 11.453 13.5069C11.2655 13.3194 11.1602 13.065 11.1602 12.7998C11.1602 12.5346 11.2655 12.2802 11.453 12.0927C11.6406 11.9052 11.8949 11.7998 12.1602 11.7998C12.4254 11.7998 12.6797 11.9052 12.8673 12.0927C13.0548 12.2802 13.1602 12.5346 13.1602 12.7998ZM20.1602 12.7998C20.1602 13.065 20.0548 13.3194 19.8673 13.5069C19.6797 13.6944 19.4254 13.7998 19.1602 13.7998C18.8949 13.7998 18.6406 13.6944 18.453 13.5069C18.2655 13.3194 18.1602 13.065 18.1602 12.7998C18.1602 12.5346 18.2655 12.2802 18.453 12.0927C18.6406 11.9052 18.8949 11.7998 19.1602 11.7998C19.4254 11.7998 19.6797 11.9052 19.8673 12.0927C20.0548 12.2802 20.1602 12.5346 20.1602 12.7998Z" stroke="#586069" stroke-width="2" stroke-linecap="round" stroke-linejoin="round"/>
</svg>
