<svg width="73" height="70" viewBox="0 0 73 70" fill="none" xmlns="http://www.w3.org/2000/svg">
<g clip-path="url(#clip0_1386_15)">
<path d="M48.665 48.6668C48.665 45.4439 39.1325 42.8335 27.3734 42.8335M48.665 48.6668C48.665 51.8897 39.1325 54.5002 27.3734 54.5002C15.6143 54.5002 6.08171 51.8897 6.08171 48.6668M48.665 48.6668V63.0664C48.665 66.3885 39.1325 69.0835 27.3734 69.0835C15.6143 69.0835 6.08171 66.3914 6.08171 63.0664V48.6668M48.665 48.6668C60.2964 48.6668 69.9567 45.7881 69.9567 42.8335V13.6668M27.3734 42.8335C15.6143 42.8335 6.08171 45.4439 6.08171 48.6668M27.3734 42.8335C13.9353 42.8335 3.04004 39.9547 3.04004 37.0002V22.4168M27.3734 16.5835C13.9353 16.5835 3.04004 19.1939 3.04004 22.4168M3.04004 22.4168C3.04004 25.6397 13.9353 28.2502 27.3734 28.2502C27.3734 31.2047 37.2679 34.0835 48.8992 34.0835C60.5275 34.0835 69.9567 31.2047 69.9567 28.2502M69.9567 13.6668C69.9567 10.4439 60.5275 7.8335 48.8992 7.8335C37.2679 7.8335 27.8418 10.4439 27.8418 13.6668M69.9567 13.6668C69.9567 16.8897 60.5275 19.5002 48.8992 19.5002C37.271 19.5002 27.8418 16.8897 27.8418 13.6668M27.8418 13.6668V43.3177" stroke="#5ACBEE" stroke-width="2"/>
</g>
<defs>
<clipPath id="clip0_1386_15">
<rect width="73" height="70" fill="white" transform="translate(-0.000976562)"/>
</clipPath>
</defs>
</svg>
