<svg width="21" height="24" viewBox="0 0 21 24" fill="none" xmlns="http://www.w3.org/2000/svg">
<path d="M7.37435 12.3748C7.92688 12.3748 8.45679 12.1553 8.84749 11.7646C9.23819 11.3739 9.45768 10.844 9.45768 10.2915C9.45768 9.73897 9.23819 9.20907 8.84749 8.81837C8.45679 8.42766 7.92688 8.20817 7.37435 8.20817C6.82181 8.20817 6.29191 8.42766 5.90121 8.81837C5.51051 9.20907 5.29102 9.73897 5.29102 10.2915C5.29102 10.844 5.51051 11.3739 5.90121 11.7646C6.29191 12.1553 6.82181 12.3748 7.37435 12.3748ZM20.3952 6.64567L10.4993 0.916504L0.603516 6.64567V18.104L10.4993 23.8332L20.3952 18.104V6.64567ZM10.4993 3.3238L18.3118 7.84671V15.0134L13.5598 12.1634L5.25664 18.3905L2.68685 16.903V7.84671L10.4993 3.3238ZM10.4993 21.4259L7.21601 19.5248L13.6889 14.6707L17.8535 17.1686L10.4993 21.4259Z" fill="#5ACBEE"/>
</svg>
