<svg width="82" height="82" viewBox="0 0 82 82" fill="none" xmlns="http://www.w3.org/2000/svg">
<path d="M14.8742 25.2822L14.3753 25.5711V26.1476V55.8521V56.4287L14.8744 56.7176L22.9787 61.4086L23.5441 61.7359L24.071 61.3496L51.1177 41.516L66.1107 50.5151L67.6253 51.4242V49.6577V26.151V25.5746L67.1265 25.2857L41.5015 10.4437L41.0004 10.1534L40.4992 10.4436L14.8742 25.2822ZM34.8751 38.2913C33.7811 39.3853 32.2974 39.9998 30.7503 39.9998C29.2032 39.9998 27.7195 39.3853 26.6255 38.2913C25.5316 37.1973 24.917 35.7136 24.917 34.1665C24.917 32.6194 25.5316 31.1357 26.6255 30.0417C27.7195 28.9478 29.2032 28.3332 30.7503 28.3332C32.2974 28.3332 33.7811 28.9478 34.8751 30.0417C35.9691 31.1357 36.5837 32.6194 36.5837 34.1665C36.5837 35.7136 35.9691 37.1973 34.8751 38.2913ZM9.54199 22.7847L41.0003 4.572L72.4587 22.7847V59.2149L41.0003 77.4277L9.54199 59.215V22.7847Z" stroke="#5ACBEE" stroke-width="2"/>
</svg>
