<svg width="21" height="23" viewBox="0 0 21 23" fill="none" xmlns="http://www.w3.org/2000/svg">
<path d="M1 22V20.25C1 17.9294 2.00089 15.7038 3.78249 14.0628C5.56408 12.4219 7.98044 11.5 10.5 11.5M10.5 11.5C13.0196 11.5 15.4359 12.4219 17.2175 14.0628C18.9991 15.7038 20 17.9294 20 20.25V22M10.5 11.5C12.0117 11.5 13.4616 10.9469 14.5305 9.96231C15.5995 8.97774 16.2 7.64239 16.2 6.25C16.2 4.85761 15.5995 3.52226 14.5305 2.53769C13.4616 1.55312 12.0117 1 10.5 1C8.98827 1 7.53845 1.55312 6.46949 2.53769C5.40053 3.52226 4.8 4.85761 4.8 6.25C4.8 7.64239 5.40053 8.97774 6.46949 9.96231C7.53845 10.9469 8.98827 11.5 10.5 11.5Z" stroke="#5ACBEE" stroke-width="2" stroke-linecap="round" stroke-linejoin="round"/>
</svg>
