<svg width="23" height="23" viewBox="0 0 23 23" fill="none" xmlns="http://www.w3.org/2000/svg">
<path d="M10.4025 1.38284C10.7229 1.2364 10.989 1.12987 11.1761 1.05961C11.3632 1.12989 11.6293 1.23645 11.9496 1.38291C12.6194 1.68915 13.5139 2.16415 14.4166 2.83762C16.2251 4.18679 17.9896 6.26742 18.184 9.34545L18.184 9.34548C18.3735 12.3441 17.4346 15.6083 16.4003 18.1835C15.8881 19.4589 15.3631 20.5395 14.9668 21.3001C14.8214 21.5792 14.6936 21.8145 14.5905 22H7.76197C7.6589 21.8145 7.53111 21.5792 7.3857 21.3001C6.98935 20.5395 6.46434 19.4589 5.95213 18.1835C4.91785 15.6083 3.979 12.3441 4.16847 9.34548L4.16849 9.34519C4.36211 6.26684 6.12653 4.18632 7.93511 2.83732C8.83792 2.16392 9.73256 1.68901 10.4025 1.38284ZM20.3465 22H18.3944C18.5945 21.5596 18.8269 21.0185 19.0913 20.3491L20.3465 22ZM3.96872 22H2.0189L3.27278 20.3517C3.53674 21.0199 3.76881 21.5602 3.96872 22ZM7.82632 12.369C8.76616 12.878 9.97196 13.1344 11.1762 13.1344C12.3805 13.1344 13.5863 12.878 14.5261 12.369C15.4382 11.8749 16.2402 11.0456 16.2402 9.93312C16.2402 8.82063 15.4382 7.99131 14.5261 7.49728C13.5863 6.98821 12.3805 6.73183 11.1762 6.73183C9.97196 6.73183 8.76616 6.98821 7.82632 7.49728C6.91427 7.99131 6.11231 8.82063 6.11231 9.93312C6.11231 11.0456 6.91427 11.8749 7.82632 12.369Z" stroke="#5ACBEE" stroke-width="2"/>
</svg>
