<svg width="43" height="80" viewBox="0 0 43 80" fill="none" xmlns="http://www.w3.org/2000/svg">
<path d="M6.34422 67.134C7.60603 73.3775 8.52595 76.892 9.10482 79H1.49254L6.34422 67.134ZM6.92681 32.3206L6.92681 32.3205C7.3284 20.4415 11.0013 12.5605 14.5287 7.66547C16.2958 5.2133 18.033 3.50141 19.3187 2.40818C19.9615 1.86159 20.4912 1.46993 20.8547 1.21804C20.8682 1.20867 20.8815 1.19949 20.8945 1.19051C20.9076 1.19949 20.9209 1.20867 20.9344 1.21804C21.2978 1.47001 21.8273 1.86179 22.47 2.40851C23.7555 3.50201 25.4925 5.21423 27.2594 7.66664C30.7865 12.5622 34.4594 20.4433 34.8626 32.3206C35.2389 43.402 33.382 55.2387 31.4189 64.3323C30.4386 68.8732 29.4347 72.7175 28.6764 75.4251C28.2972 76.7787 27.9796 77.8476 27.7572 78.5768C27.7093 78.7338 27.6659 78.8751 27.6271 79H14.1622C14.1235 78.8751 14.0801 78.7338 14.0322 78.5768C13.8098 77.8476 13.4922 76.7787 13.113 75.4251C12.3546 72.7175 11.3508 68.8732 10.3705 64.3323C8.40743 55.2387 6.55045 43.402 6.92681 32.3206ZM40.3203 79H32.7044C33.2836 76.8909 34.2042 73.3739 35.467 67.1242L40.3203 79ZM14.8124 40.6685C16.4242 42.2927 18.6119 43.2067 20.8947 43.2067C23.1775 43.2067 25.3652 42.2927 26.977 40.6685C28.5885 39.0444 29.4925 36.8434 29.4925 34.55C29.4925 32.2566 28.5885 30.0556 26.977 28.4315C25.3652 26.8073 23.1775 25.8933 20.8947 25.8933C18.6119 25.8933 16.4242 26.8073 14.8124 28.4315C13.2009 30.0556 12.2969 32.2566 12.2969 34.55C12.2969 36.8434 13.2009 39.0444 14.8124 40.6685Z" stroke="#5ACBEE" stroke-width="2"/>
</svg>
